<?xml version="1.0" encoding="UTF-8" standalone="no"?><svg xmlns="http://www.w3.org/2000/svg" xmlns:xlink="http://www.w3.org/1999/xlink" contentScriptType="application/ecmascript" contentStyleType="text/css" height="335px" preserveAspectRatio="none" style="width:316px;height:335px;" version="1.1" viewBox="0 0 316 335" width="316px" zoomAndPan="magnify"><defs><filter height="300%" id="fj9yt5v" width="300%" x="-1" y="-1"><feGaussianBlur result="blurOut" stdDeviation="2.0"/><feColorMatrix in="blurOut" result="blurOut2" type="matrix" values="0 0 0 0 0 0 0 0 0 0 0 0 0 0 0 0 0 0 .4 0"/><feOffset dx="4.0" dy="4.0" in="blurOut2" result="blurOut3"/><feBlend in="SourceGraphic" in2="blurOut3" mode="normal"/></filter></defs><g><text fill="#000000" font-family="sans-serif" font-size="18" lengthAdjust="spacingAndGlyphs" textLength="99" x="118" y="16.708">hyper-item</text><!--class Item--><rect fill="#FEFECE" filter="url(#fj9yt5v)" height="48" style="stroke: #A80036; stroke-width: 1.5;" width="59" x="126" y="28.9531"/><ellipse cx="141" cy="44.9531" fill="#ADD1B2" rx="11" ry="11" style="stroke: #A80036; stroke-width: 1.0;"/><path d="M143.3438,40.625 L143.5156,40.7031 C143.7344,40.3906 143.9375,40.2969 144.2344,40.2969 C144.5313,40.2969 144.8125,40.4375 144.9688,40.7031 C145.0625,40.8594 145.0781,40.9844 145.0781,41.4219 L145.0781,42.8438 C145.0781,43.2656 145.0469,43.4531 144.9375,43.6094 C144.7656,43.8281 144.5,43.9688 144.2344,43.9688 C144.0156,43.9688 143.7813,43.8594 143.6406,43.7188 C143.5,43.5938 143.4688,43.4688 143.4063,43.0625 C143.3125,42.6563 143.1406,42.4375 142.6563,42.1563 C142.1875,41.9063 141.5781,41.75 141,41.75 C139.2656,41.75 138.0156,43.0625 138.0156,44.8438 L138.0156,45.9375 C138.0156,47.6406 139.3125,48.7344 141.3594,48.7344 C142.125,48.7344 142.8125,48.6094 143.2344,48.3438 C143.4219,48.25 143.4219,48.25 143.875,47.7656 C144.0625,47.5781 144.2656,47.5 144.4844,47.5 C144.9531,47.5 145.3438,47.8906 145.3438,48.3438 C145.3438,48.7344 145.0156,49.1875 144.4375,49.5938 C143.6875,50.1406 142.5313,50.4375 141.3125,50.4375 C138.4219,50.4375 136.3125,48.5469 136.3125,45.9688 L136.3125,44.8438 C136.3125,42.125 138.3125,40.0469 140.9375,40.0469 C141.8125,40.0469 142.4063,40.1875 143.3438,40.625 Z "/><text fill="#000000" font-family="sans-serif" font-size="12" lengthAdjust="spacingAndGlyphs" textLength="27" x="155" y="49.1074">Item</text><line style="stroke: #A80036; stroke-width: 1.5;" x1="127" x2="184" y1="60.9531" y2="60.9531"/><line style="stroke: #A80036; stroke-width: 1.5;" x1="127" x2="184" y1="68.9531" y2="68.9531"/><!--class Property--><rect fill="#FEFECE" filter="url(#fj9yt5v)" height="48" style="stroke: #A80036; stroke-width: 1.5;" width="85" x="6" y="153.9531"/><ellipse cx="21" cy="169.9531" fill="#ADD1B2" rx="11" ry="11" style="stroke: #A80036; stroke-width: 1.0;"/><path d="M23.3438,165.625 L23.5156,165.7031 C23.7344,165.3906 23.9375,165.2969 24.2344,165.2969 C24.5313,165.2969 24.8125,165.4375 24.9688,165.7031 C25.0625,165.8594 25.0781,165.9844 25.0781,166.4219 L25.0781,167.8438 C25.0781,168.2656 25.0469,168.4531 24.9375,168.6094 C24.7656,168.8281 24.5,168.9688 24.2344,168.9688 C24.0156,168.9688 23.7813,168.8594 23.6406,168.7188 C23.5,168.5938 23.4688,168.4688 23.4063,168.0625 C23.3125,167.6563 23.1406,167.4375 22.6563,167.1563 C22.1875,166.9063 21.5781,166.75 21,166.75 C19.2656,166.75 18.0156,168.0625 18.0156,169.8438 L18.0156,170.9375 C18.0156,172.6406 19.3125,173.7344 21.3594,173.7344 C22.125,173.7344 22.8125,173.6094 23.2344,173.3438 C23.4219,173.25 23.4219,173.25 23.875,172.7656 C24.0625,172.5781 24.2656,172.5 24.4844,172.5 C24.9531,172.5 25.3438,172.8906 25.3438,173.3438 C25.3438,173.7344 25.0156,174.1875 24.4375,174.5938 C23.6875,175.1406 22.5313,175.4375 21.3125,175.4375 C18.4219,175.4375 16.3125,173.5469 16.3125,170.9688 L16.3125,169.8438 C16.3125,167.125 18.3125,165.0469 20.9375,165.0469 C21.8125,165.0469 22.4063,165.1875 23.3438,165.625 Z "/><text fill="#000000" font-family="sans-serif" font-size="12" lengthAdjust="spacingAndGlyphs" textLength="53" x="35" y="174.1074">Property</text><line style="stroke: #A80036; stroke-width: 1.5;" x1="7" x2="90" y1="185.9531" y2="185.9531"/><line style="stroke: #A80036; stroke-width: 1.5;" x1="7" x2="90" y1="193.9531" y2="193.9531"/><!--class Link--><rect fill="#FEFECE" filter="url(#fj9yt5v)" height="48" style="stroke: #A80036; stroke-width: 1.5;" width="56" x="126.5" y="153.9531"/><ellipse cx="141.5" cy="169.9531" fill="#ADD1B2" rx="11" ry="11" style="stroke: #A80036; stroke-width: 1.0;"/><path d="M143.8438,165.625 L144.0156,165.7031 C144.2344,165.3906 144.4375,165.2969 144.7344,165.2969 C145.0313,165.2969 145.3125,165.4375 145.4688,165.7031 C145.5625,165.8594 145.5781,165.9844 145.5781,166.4219 L145.5781,167.8438 C145.5781,168.2656 145.5469,168.4531 145.4375,168.6094 C145.2656,168.8281 145,168.9688 144.7344,168.9688 C144.5156,168.9688 144.2813,168.8594 144.1406,168.7188 C144,168.5938 143.9688,168.4688 143.9063,168.0625 C143.8125,167.6563 143.6406,167.4375 143.1563,167.1563 C142.6875,166.9063 142.0781,166.75 141.5,166.75 C139.7656,166.75 138.5156,168.0625 138.5156,169.8438 L138.5156,170.9375 C138.5156,172.6406 139.8125,173.7344 141.8594,173.7344 C142.625,173.7344 143.3125,173.6094 143.7344,173.3438 C143.9219,173.25 143.9219,173.25 144.375,172.7656 C144.5625,172.5781 144.7656,172.5 144.9844,172.5 C145.4531,172.5 145.8438,172.8906 145.8438,173.3438 C145.8438,173.7344 145.5156,174.1875 144.9375,174.5938 C144.1875,175.1406 143.0313,175.4375 141.8125,175.4375 C138.9219,175.4375 136.8125,173.5469 136.8125,170.9688 L136.8125,169.8438 C136.8125,167.125 138.8125,165.0469 141.4375,165.0469 C142.3125,165.0469 142.9063,165.1875 143.8438,165.625 Z "/><text fill="#000000" font-family="sans-serif" font-size="12" lengthAdjust="spacingAndGlyphs" textLength="24" x="155.5" y="174.1074">Link</text><line style="stroke: #A80036; stroke-width: 1.5;" x1="127.5" x2="181.5" y1="185.9531" y2="185.9531"/><line style="stroke: #A80036; stroke-width: 1.5;" x1="127.5" x2="181.5" y1="193.9531" y2="193.9531"/><!--class Action--><rect fill="#FEFECE" filter="url(#fj9yt5v)" height="48" style="stroke: #A80036; stroke-width: 1.5;" width="71" x="227" y="153.9531"/><ellipse cx="242" cy="169.9531" fill="#ADD1B2" rx="11" ry="11" style="stroke: #A80036; stroke-width: 1.0;"/><path d="M244.3438,165.625 L244.5156,165.7031 C244.7344,165.3906 244.9375,165.2969 245.2344,165.2969 C245.5313,165.2969 245.8125,165.4375 245.9688,165.7031 C246.0625,165.8594 246.0781,165.9844 246.0781,166.4219 L246.0781,167.8438 C246.0781,168.2656 246.0469,168.4531 245.9375,168.6094 C245.7656,168.8281 245.5,168.9688 245.2344,168.9688 C245.0156,168.9688 244.7813,168.8594 244.6406,168.7188 C244.5,168.5938 244.4688,168.4688 244.4063,168.0625 C244.3125,167.6563 244.1406,167.4375 243.6563,167.1563 C243.1875,166.9063 242.5781,166.75 242,166.75 C240.2656,166.75 239.0156,168.0625 239.0156,169.8438 L239.0156,170.9375 C239.0156,172.6406 240.3125,173.7344 242.3594,173.7344 C243.125,173.7344 243.8125,173.6094 244.2344,173.3438 C244.4219,173.25 244.4219,173.25 244.875,172.7656 C245.0625,172.5781 245.2656,172.5 245.4844,172.5 C245.9531,172.5 246.3438,172.8906 246.3438,173.3438 C246.3438,173.7344 246.0156,174.1875 245.4375,174.5938 C244.6875,175.1406 243.5313,175.4375 242.3125,175.4375 C239.4219,175.4375 237.3125,173.5469 237.3125,170.9688 L237.3125,169.8438 C237.3125,167.125 239.3125,165.0469 241.9375,165.0469 C242.8125,165.0469 243.4063,165.1875 244.3438,165.625 Z "/><text fill="#000000" font-family="sans-serif" font-size="12" lengthAdjust="spacingAndGlyphs" textLength="39" x="256" y="174.1074">Action</text><line style="stroke: #A80036; stroke-width: 1.5;" x1="228" x2="297" y1="185.9531" y2="185.9531"/><line style="stroke: #A80036; stroke-width: 1.5;" x1="228" x2="297" y1="193.9531" y2="193.9531"/><!--class Parameter--><rect fill="#FEFECE" filter="url(#fj9yt5v)" height="48" style="stroke: #A80036; stroke-width: 1.5;" width="98" x="159.5" y="278.9531"/><ellipse cx="174.5" cy="294.9531" fill="#ADD1B2" rx="11" ry="11" style="stroke: #A80036; stroke-width: 1.0;"/><path d="M176.8438,290.625 L177.0156,290.7031 C177.2344,290.3906 177.4375,290.2969 177.7344,290.2969 C178.0313,290.2969 178.3125,290.4375 178.4688,290.7031 C178.5625,290.8594 178.5781,290.9844 178.5781,291.4219 L178.5781,292.8438 C178.5781,293.2656 178.5469,293.4531 178.4375,293.6094 C178.2656,293.8281 178,293.9688 177.7344,293.9688 C177.5156,293.9688 177.2813,293.8594 177.1406,293.7188 C177,293.5938 176.9688,293.4688 176.9063,293.0625 C176.8125,292.6563 176.6406,292.4375 176.1563,292.1563 C175.6875,291.9063 175.0781,291.75 174.5,291.75 C172.7656,291.75 171.5156,293.0625 171.5156,294.8438 L171.5156,295.9375 C171.5156,297.6406 172.8125,298.7344 174.8594,298.7344 C175.625,298.7344 176.3125,298.6094 176.7344,298.3438 C176.9219,298.25 176.9219,298.25 177.375,297.7656 C177.5625,297.5781 177.7656,297.5 177.9844,297.5 C178.4531,297.5 178.8438,297.8906 178.8438,298.3438 C178.8438,298.7344 178.5156,299.1875 177.9375,299.5938 C177.1875,300.1406 176.0313,300.4375 174.8125,300.4375 C171.9219,300.4375 169.8125,298.5469 169.8125,295.9688 L169.8125,294.8438 C169.8125,292.125 171.8125,290.0469 174.4375,290.0469 C175.3125,290.0469 175.9063,290.1875 176.8438,290.625 Z "/><text fill="#000000" font-family="sans-serif" font-size="12" lengthAdjust="spacingAndGlyphs" textLength="66" x="188.5" y="299.1074">Parameter</text><line style="stroke: #A80036; stroke-width: 1.5;" x1="160.5" x2="256.5" y1="310.9531" y2="310.9531"/><line style="stroke: #A80036; stroke-width: 1.5;" x1="160.5" x2="256.5" y1="318.9531" y2="318.9531"/><path d="M198.068,41.3651 C210.433,41.7791 220,45.6421 220,52.9531 C220,60.2641 210.433,64.1271 198.068,64.5411 " fill="none" style="stroke: #A80036; stroke-width: 1.0;"/><polygon fill="#A80036" points="185.022,63.8051,193.7827,68.3051,190.0141,64.0864,194.2328,60.3178,185.022,63.8051" style="stroke: #A80036; stroke-width: 1.0;"/><line style="stroke: #A80036; stroke-width: 1.0;" x1="190.0141" x2="198.001" y1="64.0864" y2="64.5371"/><polygon fill="#A80036" points="185.022,42.1011,191.2375,45.7572,197.003,41.426,190.7875,37.7699,185.022,42.1011" style="stroke: #A80036; stroke-width: 1.0;"/><text fill="#000000" font-family="sans-serif" font-size="13" lengthAdjust="spacingAndGlyphs" textLength="36" x="226" y="57.52">items</text><text fill="#000000" font-family="sans-serif" font-size="13" lengthAdjust="spacingAndGlyphs" textLength="7" x="193.0711" y="61.7053">*</text><path d="M114.968,76.8571 C102.7643,85.1671 90.0828,95.3941 80.5,106.9531 C72.1077,117.0761 65.4389,129.7601 60.4088,141.5401 " fill="none" style="stroke: #A80036; stroke-width: 1.0;"/><polygon fill="#A80036" points="55.5896,153.8041,62.6039,146.8904,57.4182,149.1505,55.1581,143.9647,55.5896,153.8041" style="stroke: #A80036; stroke-width: 1.0;"/><line style="stroke: #A80036; stroke-width: 1.0;" x1="57.4182" x2="60.3441" y1="149.1505" y2="141.7051"/><polygon fill="#A80036" points="125.939,69.7801,118.7287,69.6713,115.8551,76.2851,123.0654,76.3939,125.939,69.7801" style="stroke: #A80036; stroke-width: 1.0;"/><text fill="#000000" font-family="sans-serif" font-size="13" lengthAdjust="spacingAndGlyphs" textLength="65" x="81.5" y="120.02">properties</text><text fill="#000000" font-family="sans-serif" font-size="13" lengthAdjust="spacingAndGlyphs" textLength="7" x="49.5094" y="142.778">*</text><path d="M155.206,90.1671 C155.076,106.1141 154.924,124.8091 154.794,140.7541 " fill="none" style="stroke: #A80036; stroke-width: 1.0;"/><polygon fill="#A80036" points="154.687,153.9211,158.7601,144.9539,154.7277,148.9213,150.7603,144.8889,154.687,153.9211" style="stroke: #A80036; stroke-width: 1.0;"/><line style="stroke: #A80036; stroke-width: 1.0;" x1="154.7277" x2="154.793" y1="148.9213" y2="140.9221"/><polygon fill="#A80036" points="155.312,77.0881,151.2633,83.0554,155.2144,89.0877,159.2631,83.1205,155.312,77.0881" style="stroke: #A80036; stroke-width: 1.0;"/><text fill="#000000" font-family="sans-serif" font-size="13" lengthAdjust="spacingAndGlyphs" textLength="28" x="156.5" y="120.02">links</text><text fill="#000000" font-family="sans-serif" font-size="13" lengthAdjust="spacingAndGlyphs" textLength="7" x="146.838" y="142.925">*</text><path d="M184.206,86.9511 C199.594,104.6401 218.496,126.3681 233.872,144.0441 " fill="none" style="stroke: #A80036; stroke-width: 1.0;"/><polygon fill="#A80036" points="242.464,153.9211,239.5748,144.5056,239.1823,150.1488,233.5391,149.7563,242.464,153.9211" style="stroke: #A80036; stroke-width: 1.0;"/><line style="stroke: #A80036; stroke-width: 1.0;" x1="239.1823" x2="233.932" y1="150.1488" y2="144.1136"/><polygon fill="#A80036" points="175.626,77.0881,176.5462,84.2403,183.5021,86.1417,182.5819,78.9896,175.626,77.0881" style="stroke: #A80036; stroke-width: 1.0;"/><text fill="#000000" font-family="sans-serif" font-size="13" lengthAdjust="spacingAndGlyphs" textLength="46" x="216.5" y="120.02">actions</text><text fill="#000000" font-family="sans-serif" font-size="13" lengthAdjust="spacingAndGlyphs" textLength="7" x="229.4329" y="142.925">*</text><path d="M143.91,215.0771 C142.418,226.3351 142.746,238.5242 147.5,248.9531 C150.975,256.5764 156.149,263.5272 162.039,269.7044 " fill="none" style="stroke: #A80036; stroke-width: 1.0;"/><polygon fill="#A80036" points="171.744,278.76,167.8925,269.6955,168.0882,275.3489,162.4348,275.5447,171.744,278.76" style="stroke: #A80036; stroke-width: 1.0;"/><line style="stroke: #A80036; stroke-width: 1.0;" x1="168.0882" x2="162.239" y1="275.3489" y2="269.891"/><polygon fill="#A80036" points="146.457,201.9881,141.3842,207.1132,144.164,213.767,149.2368,208.6419,146.457,201.9881" style="stroke: #A80036; stroke-width: 1.0;"/><text fill="#000000" font-family="sans-serif" font-size="13" lengthAdjust="spacingAndGlyphs" textLength="75" x="148.5" y="245.02">parameters</text><text fill="#000000" font-family="sans-serif" font-size="13" lengthAdjust="spacingAndGlyphs" textLength="7" x="154.4284" y="267.7226">*</text><path d="M246.99,214.2821 C239.72,230.8401 231.085,250.5094 223.838,267.0176 " fill="none" style="stroke: #A80036; stroke-width: 1.0;"/><polygon fill="#A80036" points="218.611,278.9215,225.8914,272.2885,220.6209,274.3433,218.5661,269.0728,218.611,278.9215" style="stroke: #A80036; stroke-width: 1.0;"/><line style="stroke: #A80036; stroke-width: 1.0;" x1="220.6209" x2="223.8375" y1="274.3433" y2="267.0181"/><polygon fill="#A80036" points="252.343,202.0881,246.2685,205.974,247.5191,213.0758,253.5936,209.19,252.343,202.0881" style="stroke: #A80036; stroke-width: 1.0;"/><text fill="#000000" font-family="sans-serif" font-size="13" lengthAdjust="spacingAndGlyphs" textLength="75" x="240.5" y="245.02">parameters</text><text fill="#000000" font-family="sans-serif" font-size="13" lengthAdjust="spacingAndGlyphs" textLength="7" x="213.3051" y="267.9255">*</text></g></svg>